<?xml version="1.0" encoding="UTF-8" ?>
<!DOCTYPE svg PUBLIC "-//W3C//DTD SVG 1.1//EN" "http://www.w3.org/Graphics/SVG/1.1/DTD/svg11.dtd">
<svg width="512pt" height="512pt" viewBox="0 0 512 512" version="1.1" xmlns="http://www.w3.org/2000/svg">
<g id="#000000ff">
<path fill="#000000" opacity="1.00" d=" M 190.88 21.87 C 193.99 13.26 202.76 7.12 211.92 7.22 C 304.63 7.20 397.34 7.17 490.05 7.23 C 501.17 7.27 510.90 16.62 512.00 27.58 L 512.00 208.72 C 511.44 212.28 508.38 215.08 504.78 215.34 C 500.83 215.39 497.09 212.16 497.03 208.12 C 496.95 148.73 497.03 89.34 496.99 29.95 C 497.19 25.70 493.29 21.92 489.06 22.21 C 470.71 22.20 452.36 22.20 434.01 22.21 C 359.99 22.21 285.97 22.18 211.95 22.22 C 207.83 22.14 204.22 25.92 204.45 30.03 C 204.44 164.36 204.43 298.70 204.45 433.03 C 204.31 437.09 207.93 440.79 212.00 440.66 C 264.59 440.66 317.18 440.69 369.77 440.65 C 409.52 440.70 449.27 440.65 489.02 440.67 C 493.21 440.99 497.11 437.30 496.98 433.09 C 497.02 369.70 496.99 306.31 497.00 242.92 C 496.63 238.58 500.47 234.70 504.78 234.84 C 508.35 235.04 511.35 237.83 512.00 241.32 L 512.00 435.25 C 510.93 446.22 501.20 455.60 490.08 455.65 C 451.67 455.69 413.27 455.65 374.87 455.67 C 371.56 457.61 368.01 459.18 364.16 459.64 C 273.54 474.64 182.90 489.50 92.28 504.43 C 80.36 506.80 67.63 498.02 65.86 485.94 C 43.87 352.78 22.02 219.59 0.00 86.44 L 0.00 81.99 C 1.19 72.51 8.48 64.01 17.97 62.18 C 39.65 58.51 61.36 55.01 83.05 51.43 C 87.13 50.52 91.22 53.57 91.98 57.58 C 92.45 61.42 89.87 65.43 85.97 66.11 C 64.36 69.79 42.70 73.24 21.08 76.86 C 16.99 77.63 14.20 82.08 15.18 86.11 C 36.96 218.37 58.75 350.62 80.54 482.87 C 80.96 487.34 85.66 490.67 90.02 489.60 C 111.98 485.94 133.97 482.45 155.92 478.74 C 202.45 471.16 248.97 463.42 295.49 455.77 C 270.34 455.53 245.17 455.73 220.02 455.67 C 214.11 455.58 207.85 456.33 202.40 453.52 C 193.93 449.69 188.73 440.33 189.42 431.12 C 179.99 432.60 170.58 434.21 161.16 435.75 C 148.76 437.77 136.37 439.86 123.97 441.86 C 120.13 442.57 116.10 439.72 115.47 435.87 C 114.64 432.09 117.27 428.03 121.04 427.20 C 135.02 424.87 149.01 422.59 163.00 420.27 C 171.80 418.78 180.63 417.43 189.42 415.88 C 189.47 408.14 189.45 400.41 189.43 392.68 C 181.29 394.06 173.14 395.36 165.00 396.71 C 149.28 399.29 133.58 401.90 117.86 404.46 C 113.82 405.25 109.59 402.09 109.22 398.00 C 108.62 394.16 111.54 390.27 115.37 389.70 C 132.24 386.95 149.11 384.14 165.98 381.38 C 173.79 380.01 181.65 378.91 189.44 377.42 C 189.46 357.53 189.44 337.63 189.45 317.74 C 182.51 317.20 175.59 316.33 168.82 314.70 C 149.54 310.32 131.29 301.50 115.81 289.20 C 95.79 273.35 80.71 251.40 73.01 227.06 C 62.79 195.84 65.29 160.59 80.29 131.33 C 82.35 128.28 86.74 127.24 89.96 129.02 C 114.55 140.92 139.09 152.94 163.66 164.88 C 172.26 169.08 180.86 173.25 189.46 177.45 C 189.42 134.66 189.48 91.88 189.42 49.10 C 175.86 51.31 162.30 53.56 148.73 55.80 C 138.80 57.39 128.89 59.13 118.95 60.64 C 115.16 61.01 111.80 58.05 110.97 54.46 C 110.54 50.70 112.90 46.65 116.76 45.91 C 140.96 41.83 165.21 37.98 189.41 33.88 C 189.44 29.84 189.30 25.68 190.88 21.87 M 90.11 145.79 C 81.39 166.97 79.49 190.86 84.71 213.15 C 90.00 236.32 102.61 257.77 120.44 273.50 C 134.30 285.78 151.11 294.74 169.04 299.31 C 175.71 301.11 182.56 302.16 189.45 302.69 C 189.44 296.95 189.44 291.21 189.45 285.47 C 182.55 284.75 175.72 283.39 169.09 281.37 L 169.09 281.33 C 139.72 272.31 115.06 249.19 104.68 220.21 C 96.67 198.69 96.53 174.34 104.54 152.80 C 99.72 150.48 94.97 148.03 90.11 145.79 M 118.14 159.43 C 110.45 181.39 113.05 206.45 124.31 226.72 C 133.91 244.39 150.03 258.36 168.87 265.38 C 175.48 267.91 182.41 269.55 189.44 270.37 C 189.43 244.96 189.47 219.56 189.42 194.15 C 181.58 190.28 173.73 186.42 165.83 182.69 C 149.98 174.83 134.04 167.17 118.14 159.43 Z" />
<path fill="#000000" opacity="1.00" d=" M 377.90 91.92 C 381.94 84.79 391.29 81.31 399.01 84.10 C 406.45 87.25 415.54 90.43 417.90 99.14 C 420.78 106.83 416.12 114.10 413.06 120.87 L 413.09 121.57 C 424.43 128.60 435.52 137.18 442.02 149.11 C 445.09 154.87 446.58 161.71 444.91 168.14 C 451.65 187.02 449.51 207.96 442.66 226.48 C 438.52 238.61 432.07 249.93 423.48 259.46 C 411.25 273.42 396.40 284.92 380.43 294.28 C 361.22 305.07 339.55 314.03 317.09 312.13 C 303.62 311.03 291.50 303.31 283.05 293.03 C 268.19 275.05 261.58 251.75 258.82 228.96 C 256.07 202.70 258.06 174.71 271.24 151.28 C 281.08 132.64 296.26 115.89 316.37 108.37 C 321.22 101.41 329.81 98.26 337.97 97.53 C 349.78 96.48 361.55 99.14 372.73 102.74 C 374.52 99.16 376.01 95.44 377.90 91.92 M 391.13 99.08 C 388.21 104.60 385.92 110.44 383.06 115.99 C 381.29 118.99 377.29 120.36 374.06 119.08 C 363.44 115.25 352.33 111.83 340.92 112.24 C 336.59 112.54 331.66 113.26 328.76 116.82 C 326.56 120.11 328.97 124.16 331.69 126.27 C 338.09 131.24 346.90 131.01 354.42 129.24 C 357.72 128.21 361.59 129.72 363.21 132.80 C 368.99 144.47 383.28 151.08 395.94 148.09 C 399.40 147.27 403.08 149.36 404.49 152.55 C 408.06 159.68 413.93 166.79 422.26 168.07 C 425.42 168.52 429.61 167.47 430.48 163.94 C 431.26 159.22 428.43 154.89 425.72 151.30 C 418.62 142.51 408.93 136.34 399.26 130.75 C 396.09 128.91 394.72 124.57 396.35 121.26 C 398.71 116.00 401.27 110.82 403.57 105.53 C 404.54 102.77 401.42 101.48 399.39 100.71 C 396.79 99.88 393.76 96.71 391.13 99.08 M 290.85 147.94 C 283.66 158.53 277.76 170.24 275.37 182.90 C 270.84 205.82 272.28 229.82 278.73 252.24 C 282.09 263.40 286.84 274.41 294.44 283.37 C 297.66 287.24 301.48 290.69 305.89 293.16 C 315.27 298.71 326.84 297.93 337.13 295.83 C 356.23 291.50 373.71 281.83 389.37 270.30 C 402.15 260.59 414.28 249.41 422.40 235.40 C 430.85 218.94 436.30 199.98 432.98 181.41 C 429.29 182.85 425.31 183.36 421.37 183.10 C 409.28 182.16 399.65 173.38 393.32 163.66 C 377.78 165.15 361.84 157.60 352.90 144.85 C 344.89 145.96 336.44 145.50 328.98 142.14 C 322.10 139.07 316.31 133.32 313.88 126.11 C 304.57 131.39 296.92 139.20 290.85 147.94 Z" />
<path fill="#000000" opacity="1.00" d=" M 315.23 167.28 C 319.98 164.61 326.42 168.66 326.13 174.07 C 326.54 179.62 319.86 183.82 315.07 180.94 C 309.78 178.34 309.89 169.75 315.23 167.28 Z" />
<path fill="#000000" opacity="1.00" d=" M 349.15 190.25 C 354.08 188.14 359.94 192.74 359.25 198.01 C 359.21 203.43 352.51 207.07 347.96 204.10 C 342.57 201.21 343.28 192.14 349.15 190.25 Z" />
<path fill="#000000" opacity="1.00" d=" M 143.33 196.41 C 148.32 193.79 154.79 198.55 153.89 204.07 C 153.09 208.03 150.61 212.53 146.14 212.92 C 141.27 213.69 136.77 208.68 138.00 203.91 C 139.01 201.03 140.32 197.72 143.33 196.41 Z" />
<path fill="#000000" opacity="1.00" d=" M 390.34 201.50 C 395.73 199.81 401.23 205.58 399.47 210.90 C 398.46 216.20 391.18 218.51 387.29 214.77 C 382.76 211.11 384.57 202.73 390.34 201.50 Z" />
<path fill="#000000" opacity="1.00" d=" M 306.48 206.59 C 311.79 205.08 317.07 210.64 315.52 215.88 C 314.60 221.31 307.16 223.68 303.23 219.85 C 298.74 216.10 300.63 207.72 306.48 206.59 Z" />
<path fill="#000000" opacity="1.00" d=" M 162.45 233.59 C 158.03 228.79 161.85 220.15 167.79 218.72 C 172.12 218.07 176.55 221.52 176.57 225.98 C 176.29 230.62 173.19 235.73 168.13 236.08 C 166.03 235.87 163.88 235.22 162.45 233.59 Z" />
<path fill="#000000" opacity="1.00" d=" M 365.17 233.17 C 369.90 230.65 376.16 234.68 375.91 240.00 C 376.33 245.49 369.82 249.72 365.01 246.99 C 359.51 244.46 359.61 235.55 365.17 233.17 Z" />
<path fill="#000000" opacity="1.00" d=" M 322.28 245.41 C 327.27 242.97 333.47 247.61 332.74 253.05 C 332.68 258.33 326.24 262.02 321.70 259.24 C 316.23 256.58 316.60 247.60 322.28 245.41 Z" />
<path fill="#000000" opacity="1.00" d=" M 247.16 356.77 C 244.85 352.11 248.73 346.07 253.91 346.22 C 316.54 346.17 379.16 346.23 441.78 346.19 C 445.60 346.32 450.35 345.38 453.08 348.83 C 456.81 352.79 454.38 360.06 449.03 361.01 C 444.13 361.43 439.18 361.09 434.26 361.19 C 374.17 361.20 314.08 361.21 253.99 361.19 C 251.10 361.23 248.35 359.39 247.16 356.77 Z" />
<path fill="#000000" opacity="1.00" d=" M 252.19 384.34 C 277.78 383.86 303.43 384.26 329.05 384.14 C 333.21 383.93 336.97 387.82 336.62 391.99 C 336.53 395.90 332.95 399.18 329.07 399.11 C 304.06 399.15 279.05 399.15 254.04 399.11 C 250.51 399.14 247.15 396.42 246.63 392.89 C 245.86 389.15 248.49 385.18 252.19 384.34 Z" />
<path fill="#000000" opacity="1.00" d=" M 365.45 394.67 C 363.18 390.10 366.89 384.10 372.00 384.15 C 388.64 384.11 405.28 384.15 421.92 384.13 C 430.63 384.16 439.33 384.09 448.04 384.16 C 451.96 384.37 455.19 388.12 454.88 392.03 C 454.74 396.03 451.00 399.34 447.02 399.12 C 435.12 399.14 423.23 399.13 411.34 399.13 C 398.56 399.14 385.79 399.13 373.01 399.13 C 369.89 399.33 366.71 397.57 365.45 394.67 Z" />
</g>
<g id="#f9f7f8ff">
<path fill="#f9f7f8" opacity="1.00" d=" M 204.45 30.03 C 204.22 25.92 207.83 22.14 211.95 22.22 C 285.97 22.18 359.99 22.21 434.01 22.21 C 457.16 68.62 468.30 120.34 470.86 171.95 C 472.95 222.56 467.15 273.80 450.82 321.87 C 448.29 330.16 444.57 338.00 441.78 346.19 C 379.16 346.23 316.54 346.17 253.91 346.22 C 248.73 346.07 244.85 352.11 247.16 356.77 C 248.35 359.39 251.10 361.23 253.99 361.19 C 314.08 361.21 374.17 361.20 434.26 361.19 C 430.94 369.24 426.16 376.55 421.92 384.13 C 405.28 384.15 388.64 384.11 372.00 384.15 C 366.89 384.10 363.18 390.10 365.45 394.67 C 366.71 397.57 369.89 399.33 373.01 399.13 C 385.79 399.13 398.56 399.14 411.34 399.13 C 399.96 415.18 385.69 429.12 369.77 440.65 C 317.18 440.69 264.59 440.66 212.00 440.66 C 207.93 440.79 204.31 437.09 204.45 433.03 C 204.43 298.70 204.44 164.36 204.45 30.03 M 377.90 91.92 C 376.01 95.44 374.52 99.16 372.73 102.74 C 361.55 99.14 349.78 96.48 337.97 97.53 C 329.81 98.26 321.22 101.41 316.37 108.37 C 296.26 115.89 281.08 132.64 271.24 151.28 C 258.06 174.71 256.07 202.70 258.82 228.96 C 261.58 251.75 268.19 275.05 283.05 293.03 C 291.50 303.31 303.62 311.03 317.09 312.13 C 339.55 314.03 361.22 305.07 380.43 294.28 C 396.40 284.92 411.25 273.42 423.48 259.46 C 432.07 249.93 438.52 238.61 442.66 226.48 C 449.51 207.96 451.65 187.02 444.91 168.14 C 446.58 161.71 445.09 154.87 442.02 149.11 C 435.52 137.18 424.43 128.60 413.09 121.57 L 413.06 120.87 C 416.12 114.10 420.78 106.83 417.90 99.14 C 415.54 90.43 406.45 87.25 399.01 84.10 C 391.29 81.31 381.94 84.79 377.90 91.92 M 252.19 384.34 C 248.49 385.18 245.86 389.15 246.63 392.89 C 247.15 396.42 250.51 399.14 254.04 399.11 C 279.05 399.15 304.06 399.15 329.07 399.11 C 332.95 399.18 336.53 395.90 336.62 391.99 C 336.97 387.82 333.21 383.93 329.05 384.14 C 303.43 384.26 277.78 383.86 252.19 384.34 Z" />
</g>
<g id="#e5e1e5ff">
<path fill="#e5e1e5" opacity="1.00" d=" M 434.01 22.21 C 452.36 22.20 470.71 22.20 489.06 22.21 C 493.29 21.92 497.19 25.70 496.99 29.95 C 497.03 89.34 496.95 148.73 497.03 208.12 C 497.09 212.16 500.83 215.39 504.78 215.34 C 504.75 221.84 504.75 228.34 504.78 234.84 C 500.47 234.70 496.63 238.58 497.00 242.92 C 496.99 306.31 497.02 369.70 496.98 433.09 C 497.11 437.30 493.21 440.99 489.02 440.67 C 449.27 440.65 409.52 440.70 369.77 440.65 C 385.69 429.12 399.96 415.18 411.34 399.13 C 423.23 399.13 435.12 399.14 447.02 399.12 C 451.00 399.34 454.74 396.03 454.88 392.03 C 455.19 388.12 451.96 384.37 448.04 384.16 C 439.33 384.09 430.63 384.16 421.92 384.13 C 426.16 376.55 430.94 369.24 434.26 361.19 C 439.18 361.09 444.13 361.43 449.03 361.01 C 454.38 360.06 456.81 352.79 453.08 348.83 C 450.35 345.38 445.60 346.32 441.78 346.19 C 444.57 338.00 448.29 330.16 450.82 321.87 C 467.15 273.80 472.95 222.56 470.86 171.95 C 468.30 120.34 457.16 68.62 434.01 22.21 Z" />
</g>
<g id="#fea610ff">
<path fill="#fea610" opacity="1.00" d=" M 148.73 55.80 C 162.30 53.56 175.86 51.31 189.42 49.10 C 189.48 91.88 189.42 134.66 189.46 177.45 C 180.86 173.25 172.26 169.08 163.66 164.88 C 163.79 163.24 163.91 161.59 163.82 159.94 C 160.75 124.98 156.07 90.13 148.73 55.80 Z" />
<path fill="#fea610" opacity="1.00" d=" M 168.82 314.70 C 175.59 316.33 182.51 317.20 189.45 317.74 C 189.44 337.63 189.46 357.53 189.44 377.42 C 181.65 378.91 173.79 380.01 165.98 381.38 C 167.63 359.19 168.27 336.94 168.82 314.70 Z" />
<path fill="#fea610" opacity="1.00" d=" M 165.00 396.71 C 173.14 395.36 181.29 394.06 189.43 392.68 C 189.45 400.41 189.47 408.14 189.42 415.88 C 180.63 417.43 171.80 418.78 163.00 420.27 C 163.64 412.42 164.31 404.56 165.00 396.71 Z" />
<path fill="#fea610" opacity="1.00" d=" M 161.16 435.75 C 170.58 434.21 179.99 432.60 189.42 431.12 C 188.73 440.33 193.93 449.69 202.40 453.52 C 207.85 456.33 214.11 455.58 220.02 455.67 C 245.17 455.73 270.34 455.53 295.49 455.77 C 248.97 463.42 202.45 471.16 155.92 478.74 C 157.30 464.38 160.14 450.16 161.16 435.75 Z" />
</g>
<g id="#ffc243ff">
<path fill="#ffc243" opacity="1.00" d=" M 91.98 57.58 C 98.30 56.53 104.63 55.47 110.97 54.46 C 111.80 58.05 115.16 61.01 118.95 60.64 C 128.89 59.13 138.80 57.39 148.73 55.80 C 156.07 90.13 160.75 124.98 163.82 159.94 C 163.91 161.59 163.79 163.24 163.66 164.88 C 139.09 152.94 114.55 140.92 89.96 129.02 C 86.74 127.24 82.35 128.28 80.29 131.33 C 65.29 160.59 62.79 195.84 73.01 227.06 C 80.71 251.40 95.79 273.35 115.81 289.20 C 131.29 301.50 149.54 310.32 168.82 314.70 C 168.27 336.94 167.63 359.19 165.98 381.38 C 149.11 384.14 132.24 386.95 115.37 389.70 C 111.54 390.27 108.62 394.16 109.22 398.00 C 109.59 402.09 113.82 405.25 117.86 404.46 C 133.58 401.90 149.28 399.29 165.00 396.71 C 164.31 404.56 163.64 412.42 163.00 420.27 C 149.01 422.59 135.02 424.87 121.04 427.20 C 117.27 428.03 114.64 432.09 115.47 435.87 C 116.10 439.72 120.13 442.57 123.97 441.86 C 136.37 439.86 148.76 437.77 161.16 435.75 C 160.14 450.16 157.30 464.38 155.92 478.74 C 133.97 482.45 111.98 485.94 90.02 489.60 C 85.66 490.67 80.96 487.34 80.54 482.87 C 58.75 350.62 36.96 218.37 15.18 86.11 C 14.20 82.08 16.99 77.63 21.08 76.86 C 42.70 73.24 64.36 69.79 85.97 66.11 C 89.87 65.43 92.45 61.42 91.98 57.58 Z" />
</g>
<g id="#6fd7a3ff">
<path fill="#6fd7a3" opacity="1.00" d=" M 391.13 99.08 C 393.76 96.71 396.79 99.88 399.39 100.71 C 396.78 106.33 394.13 111.93 391.60 117.58 C 389.96 121.55 388.16 126.02 389.63 130.32 C 391.23 134.77 395.42 137.46 399.39 139.60 C 410.34 145.60 419.17 155.84 422.26 168.07 C 413.93 166.79 408.06 159.68 404.49 152.55 C 403.08 149.36 399.40 147.27 395.94 148.09 C 383.28 151.08 368.99 144.47 363.21 132.80 C 361.59 129.72 357.72 128.21 354.42 129.24 C 346.90 131.01 338.09 131.24 331.69 126.27 C 328.97 124.16 326.56 120.11 328.76 116.82 C 331.66 113.26 336.59 112.54 340.92 112.24 C 352.33 111.83 363.44 115.25 374.06 119.08 C 377.29 120.36 381.29 118.99 383.06 115.99 C 385.92 110.44 388.21 104.60 391.13 99.08 Z" />
<path fill="#6fd7a3" opacity="1.00" d=" M 90.11 145.79 C 94.97 148.03 99.72 150.48 104.54 152.80 C 96.53 174.34 96.67 198.69 104.68 220.21 C 115.06 249.19 139.72 272.31 169.09 281.33 L 169.09 281.37 C 169.12 287.35 168.92 293.33 169.04 299.31 C 151.11 294.74 134.30 285.78 120.44 273.50 C 102.61 257.77 90.00 236.32 84.71 213.15 C 79.49 190.86 81.39 166.97 90.11 145.79 Z" />
</g>
<g id="#3ec3a4ff">
<path fill="#3ec3a4" opacity="1.00" d=" M 399.39 100.71 C 401.42 101.48 404.54 102.77 403.57 105.53 C 401.27 110.82 398.71 116.00 396.35 121.26 C 394.72 124.57 396.09 128.91 399.26 130.75 C 408.93 136.34 418.62 142.51 425.72 151.30 C 428.43 154.89 431.26 159.22 430.48 163.94 C 429.61 167.47 425.42 168.52 422.26 168.07 C 419.17 155.84 410.34 145.60 399.39 139.60 C 395.42 137.46 391.23 134.77 389.63 130.32 C 388.16 126.02 389.96 121.55 391.60 117.58 C 394.13 111.93 396.78 106.33 399.39 100.71 Z" />
<path fill="#3ec3a4" opacity="1.00" d=" M 169.09 281.37 C 175.72 283.39 182.55 284.75 189.45 285.47 C 189.44 291.21 189.44 296.95 189.45 302.69 C 182.56 302.16 175.71 301.11 169.04 299.31 C 168.92 293.33 169.12 287.35 169.09 281.37 Z" />
</g>
<g id="#ec5469ff">
<path fill="#ec5469" opacity="1.00" d=" M 290.85 147.94 C 296.92 139.20 304.57 131.39 313.88 126.11 C 316.31 133.32 322.10 139.07 328.98 142.14 C 336.44 145.50 344.89 145.96 352.90 144.85 C 361.84 157.60 377.78 165.15 393.32 163.66 C 399.65 173.38 409.28 182.16 421.37 183.10 C 419.73 195.27 415.46 206.98 409.85 217.86 C 398.36 237.47 380.37 252.33 361.39 264.37 C 346.49 273.31 330.29 280.77 312.97 283.26 C 306.83 284.24 300.61 283.72 294.44 283.37 C 286.84 274.41 282.09 263.40 278.73 252.24 C 272.28 229.82 270.84 205.82 275.37 182.90 C 277.76 170.24 283.66 158.53 290.85 147.94 M 315.23 167.28 C 309.89 169.75 309.78 178.34 315.07 180.94 C 319.86 183.82 326.54 179.62 326.13 174.07 C 326.42 168.66 319.98 164.61 315.23 167.28 M 349.15 190.25 C 343.28 192.14 342.57 201.21 347.96 204.10 C 352.51 207.07 359.21 203.43 359.25 198.01 C 359.94 192.74 354.08 188.14 349.15 190.25 M 390.34 201.50 C 384.57 202.73 382.76 211.11 387.29 214.77 C 391.18 218.51 398.46 216.20 399.47 210.90 C 401.23 205.58 395.73 199.81 390.34 201.50 M 306.48 206.59 C 300.63 207.72 298.74 216.10 303.23 219.85 C 307.16 223.68 314.60 221.31 315.52 215.88 C 317.07 210.64 311.79 205.08 306.48 206.59 M 365.17 233.17 C 359.61 235.55 359.51 244.46 365.01 246.99 C 369.82 249.72 376.33 245.49 375.91 240.00 C 376.16 234.68 369.90 230.65 365.17 233.17 M 322.28 245.41 C 316.60 247.60 316.23 256.58 321.70 259.24 C 326.24 262.02 332.68 258.33 332.74 253.05 C 333.47 247.61 327.27 242.97 322.28 245.41 Z" />
<path fill="#ec5469" opacity="1.00" d=" M 118.14 159.43 C 134.04 167.17 149.98 174.83 165.83 182.69 C 165.79 188.44 166.32 194.18 166.70 199.92 C 167.11 206.19 167.02 212.48 167.79 218.72 C 161.85 220.15 158.03 228.79 162.45 233.59 C 163.88 235.22 166.03 235.87 168.13 236.08 C 168.74 245.84 168.82 255.61 168.87 265.38 C 150.03 258.36 133.91 244.39 124.31 226.72 C 113.05 206.45 110.45 181.39 118.14 159.43 M 143.33 196.41 C 140.32 197.72 139.01 201.03 138.00 203.91 C 136.77 208.68 141.27 213.69 146.14 212.92 C 150.61 212.53 153.09 208.03 153.89 204.07 C 154.79 198.55 148.32 193.79 143.33 196.41 Z" />
</g>
<g id="#e5374eff">
<path fill="#e5374e" opacity="1.00" d=" M 421.37 183.10 C 425.31 183.36 429.29 182.85 432.98 181.41 C 436.30 199.98 430.85 218.94 422.40 235.40 C 414.28 249.41 402.15 260.59 389.37 270.30 C 373.71 281.83 356.23 291.50 337.13 295.83 C 326.84 297.93 315.27 298.71 305.89 293.16 C 301.48 290.69 297.66 287.24 294.44 283.37 C 300.61 283.72 306.83 284.24 312.97 283.26 C 330.29 280.77 346.49 273.31 361.39 264.37 C 380.37 252.33 398.36 237.47 409.85 217.86 C 415.46 206.98 419.73 195.27 421.37 183.10 Z" />
<path fill="#e5374e" opacity="1.00" d=" M 165.83 182.69 C 173.73 186.42 181.58 190.28 189.42 194.15 C 189.47 219.56 189.43 244.96 189.44 270.37 C 182.41 269.55 175.48 267.91 168.87 265.38 C 168.82 255.61 168.74 245.84 168.13 236.08 C 173.19 235.73 176.29 230.62 176.57 225.98 C 176.55 221.52 172.12 218.07 167.79 218.72 C 167.02 212.48 167.11 206.19 166.70 199.92 C 166.32 194.18 165.79 188.44 165.83 182.69 Z" />
</g>
</svg>
